<?xml version="1.0" encoding="UTF-8"?>
<svg width="78px" height="30px" viewBox="0 0 78 30" version="1.1" xmlns="http://www.w3.org/2000/svg" xmlns:xlink="http://www.w3.org/1999/xlink">
    <title>Group 2</title>
    <g id="Page-1" stroke="none" stroke-width="1" fill="none" fill-rule="evenodd">
        <g id="temp1" transform="translate(-84.000000, -65.000000)" fill="#2A2A2A" fill-rule="nonzero">
            <g id="nbx-logo" transform="translate(84.000000, 65.000000)">
                <path d="M0,30 L0,0 L3.72367915,0 L17.6571244,22.5883333 C18.3323427,23.7333333 18.7630854,24.5133333 18.9227429,24.9283333 L18.9227429,0 L22.277214,0 L22.277214,30 L18.5535349,30 L4.62008962,7.4 C3.94487134,6.255 3.51412864,5.47333333 3.35447112,5.05833333 L3.35447112,29.9866667 L0,29.9866667 L0,30 Z M29.1707603,30 L29.1707603,0 L39.8744668,0 C42.6518425,0 44.8870478,0.68 46.5701043,2.02666667 C48.2548238,3.385 49.1013413,5.12166667 49.1013413,7.235 C49.1013413,10.3816667 47.3933384,12.5966667 43.9906374,13.8416667 C48.0702197,15.265 50.1224842,17.7816667 50.1224842,21.3666667 C50.1224842,23.9333333 49.1262877,26.0116667 47.135558,27.5966667 C45.1448282,29.1816667 42.7499654,29.9866667 39.9476432,29.9866667 L29.1707603,29.9866667 L29.1707603,30 Z M32.6848889,3.00833333 L32.6848889,12.5833333 L39.6283281,12.5833333 C41.4843468,12.5833333 42.9578528,12.1933333 44.0771185,11.4133333 C45.1947212,10.6333333 45.7468701,9.43833333 45.7468701,7.81333333 C45.7468701,6.19166667 45.1814164,4.99666667 44.0505089,4.19 C42.9196015,3.39833333 41.4460956,2.995 39.6166864,2.995 L32.6848889,2.995 L32.6848889,3.00833333 L32.6848889,3.00833333 Z M32.6848889,15.6033333 L32.6848889,26.98 L39.4320824,26.98 C41.6440044,26.98 43.4118788,26.5266667 44.7639785,25.6216667 C46.1160782,24.715 46.7929595,23.2683333 46.7929595,21.2916667 C46.7929595,19.3166667 46.1160782,17.87 44.7639785,16.9633333 C43.4118788,16.0566667 41.6423413,15.6033333 39.4320824,15.6033333 L32.6848889,15.6033333 L32.6848889,15.6033333 Z M62.4959423,11.25 L69.8185682,11.25 L69.8185682,18.75 L73.4807127,18.75 L73.4807127,22.5 L77.1428571,22.5 L77.1428571,30 L73.4807127,30 L73.4807127,22.5 L69.8169051,22.5 L69.8169051,18.75 L62.4942792,18.75 L62.4942792,11.25 L58.8321348,11.25 L58.8321348,7.5 L55.1699903,7.5 L55.1699903,0 L58.8321348,0 L58.8321348,7.5 L62.4942792,7.5 L62.4942792,11.25 L62.4959423,11.25 Z M58.8337979,30 L55.1716534,30 L55.1716534,22.5 L58.8337979,22.5 L58.8337979,30 Z M62.4959423,22.5 L58.8337979,22.5 L58.8337979,18.75 L62.4959423,18.75 L62.4959423,22.5 Z M73.4807127,11.25 L69.8169051,11.25 L69.8169051,7.5 L73.4790496,7.5 L73.4790496,11.25 L73.4807127,11.25 Z M77.1428571,7.5 L73.4807127,7.5 L73.4807127,0 L77.1428571,0 L77.1428571,7.5 Z" id="Shape"></path>
            </g>
        </g>
    </g>
</svg>