<?xml version="1.0" encoding="UTF-8"?>
<svg width="40px" height="40px" viewBox="0 0 40 40" version="1.1" xmlns="http://www.w3.org/2000/svg" xmlns:xlink="http://www.w3.org/1999/xlink">
    <title>Group 5</title>
    <g id="Page-1" stroke="none" stroke-width="1" fill="none" fill-rule="evenodd">
        <g id="Artboard" transform="translate(-155.000000, -10.000000)">
            <g id="Group-5" transform="translate(155.000000, 10.000000)">
                <g id="Avatar" transform="translate(10.000000, 8.000000)" fill="#2A2A2A">
                    <g id="Body" transform="translate(0.000000, 12.777778)">
                        <rect id="Rectangle" x="0" y="7.66666667" width="2.5" height="2.55555556"></rect>
                        <rect id="Rectangle" x="0" y="5.11111111" width="2.5" height="2.55555556"></rect>
                        <rect id="Rectangle" x="17.5" y="7.66666667" width="2.5" height="2.55555556"></rect>
                        <rect id="Rectangle" x="17.5" y="5.11111111" width="2.5" height="2.55555556"></rect>
                        <rect id="Rectangle" x="2.5" y="2.55555556" width="2.5" height="2.55555556"></rect>
                        <rect id="Rectangle" x="15" y="2.55555556" width="2.5" height="2.55555556"></rect>
                        <rect id="Rectangle" x="5" y="0" width="2.5" height="2.55555556"></rect>
                        <rect id="Rectangle" x="7.5" y="0" width="2.5" height="2.55555556"></rect>
                        <rect id="Rectangle" x="7.5" y="0" width="2.5" height="2.55555556"></rect>
                        <rect id="Rectangle" x="10" y="0" width="2.5" height="2.55555556"></rect>
                        <rect id="Rectangle" x="12.5" y="0" width="2.5" height="2.55555556"></rect>
                        <rect id="Rectangle" x="12.5" y="0" width="2.5" height="2.55555556"></rect>
                    </g>
                    <g id="Head" transform="translate(5.000000, 0.000000)">
                        <rect id="Rectangle" x="2.5" y="7.66666667" width="2.5" height="2.55555556"></rect>
                        <rect id="Rectangle" x="5" y="7.66666667" width="2.5" height="2.55555556"></rect>
                        <rect id="Rectangle" x="7.5" y="5.11111111" width="2.5" height="2.55555556"></rect>
                        <rect id="Rectangle" x="7.5" y="2.55555556" width="2.5" height="2.55555556"></rect>
                        <rect id="Rectangle" x="5" y="0" width="2.5" height="2.55555556"></rect>
                        <rect id="Rectangle" x="2.5" y="0" width="2.5" height="2.55555556"></rect>
                        <rect id="Rectangle" x="0" y="2.55555556" width="2.5" height="2.55555556"></rect>
                        <rect id="Rectangle" x="0" y="5.11111111" width="2.5" height="2.55555556"></rect>
                    </g>
                </g>
                <circle id="Oval" stroke="#2A2A2A" stroke-width="3" cx="20" cy="20" r="18.5"></circle>
            </g>
        </g>
    </g>
</svg>