<?xml version="1.0" encoding="UTF-8"?>
<svg width="54px" height="40px" viewBox="0 0 54 40" version="1.1" xmlns="http://www.w3.org/2000/svg" xmlns:xlink="http://www.w3.org/1999/xlink">
    <title>Group 14</title>
    <g id="Page-1" stroke="none" stroke-width="1" fill="none" fill-rule="evenodd">
        <g id="Artboard" transform="translate(-216.000000, -10.000000)">
            <g id="Group-14" transform="translate(216.000000, 10.000000)">
                <g id="Group-2" stroke="#2A2A2A" stroke-width="3">
                    <circle id="Oval" cx="20" cy="20" r="18.5"></circle>
                    <path d="M34,1.5 C39.1086339,1.5 43.7336339,3.57068303 47.0814755,6.91852455 C50.429317,10.2663661 52.5,14.8913661 52.5,20 C52.5,25.1086339 50.429317,29.7336339 47.0814755,33.0814755 C43.7336339,36.429317 39.1086339,38.5 34,38.5 C31.7217783,38.5 29.5396354,38.0886129 27.52412,37.3353312 C27.3482053,37.2695846 27.1730406,37.2010394 26.998575,37.12979 C26.8243408,37.2011543 26.649293,37.2697109 26.4734975,37.3354634 C24.4593478,38.0888123 22.2776897,38.5 20,38.5 C14.8913661,38.5 10.2663661,36.429317 6.91852455,33.0814755 C3.57068303,29.7336339 1.5,25.1086339 1.5,20 C1.5,14.8913661 3.57068303,10.2663661 6.91852455,6.91852455 C10.2663661,3.57068303 14.8913661,1.5 20,1.5 C22.2782217,1.5 24.4603646,1.91138715 26.47588,2.66466878 C26.6517947,2.73041541 26.8269594,2.79896063 27.001425,2.87020999 C27.1756592,2.79884575 27.350707,2.73028909 27.5265025,2.66453659 C29.5406522,1.91118767 31.7223103,1.5 34,1.5 Z" id="Combined-Shape"></path>
                </g>
                <g id="Group-5">
                    <g id="Avatar" transform="translate(10.000000, 8.000000)" fill="#2A2A2A">
                        <g id="Body" transform="translate(0.000000, 12.777778)">
                            <rect id="Rectangle" x="0" y="7.66666667" width="2.5" height="2.55555556"></rect>
                            <rect id="Rectangle" x="0" y="5.11111111" width="2.5" height="2.55555556"></rect>
                            <rect id="Rectangle" x="17.5" y="7.66666667" width="2.5" height="2.55555556"></rect>
                            <rect id="Rectangle" x="17.5" y="5.11111111" width="2.5" height="2.55555556"></rect>
                            <rect id="Rectangle" x="2.5" y="2.55555556" width="2.5" height="2.55555556"></rect>
                            <rect id="Rectangle" x="15" y="2.55555556" width="2.5" height="2.55555556"></rect>
                            <rect id="Rectangle" x="5" y="0" width="2.5" height="2.55555556"></rect>
                            <rect id="Rectangle" x="7.5" y="0" width="2.5" height="2.55555556"></rect>
                            <rect id="Rectangle" x="7.5" y="0" width="2.5" height="2.55555556"></rect>
                            <rect id="Rectangle" x="10" y="0" width="2.5" height="2.55555556"></rect>
                            <rect id="Rectangle" x="12.5" y="0" width="2.5" height="2.55555556"></rect>
                            <rect id="Rectangle" x="12.5" y="0" width="2.5" height="2.55555556"></rect>
                        </g>
                        <g id="Head" transform="translate(5.000000, 0.000000)">
                            <rect id="Rectangle" x="2.5" y="7.66666667" width="2.5" height="2.55555556"></rect>
                            <rect id="Rectangle" x="5" y="7.66666667" width="2.5" height="2.55555556"></rect>
                            <rect id="Rectangle" x="7.5" y="5.11111111" width="2.5" height="2.55555556"></rect>
                            <rect id="Rectangle" x="7.5" y="2.55555556" width="2.5" height="2.55555556"></rect>
                            <rect id="Rectangle" x="5" y="0" width="2.5" height="2.55555556"></rect>
                            <rect id="Rectangle" x="2.5" y="0" width="2.5" height="2.55555556"></rect>
                            <rect id="Rectangle" x="0" y="2.55555556" width="2.5" height="2.55555556"></rect>
                            <rect id="Rectangle" x="0" y="5.11111111" width="2.5" height="2.55555556"></rect>
                        </g>
                    </g>
                    <circle id="Oval" stroke="#2A2A2A" stroke-width="3" cx="20" cy="20" r="18.5"></circle>
                </g>
            </g>
        </g>
    </g>
</svg>